<?xml version="1.0" encoding="utf-8"?>
<!-- Generator: Adobe Illustrator 22.0.1, SVG Export Plug-In . SVG Version: 6.00 Build 0)  -->
<svg version="1.1" id="katman_1" xmlns="http://www.w3.org/2000/svg" xmlns:xlink="http://www.w3.org/1999/xlink" x="0px" y="0px"
	 viewBox="0 0 141.7 90.1" style="enable-background:new 0 0 141.7 90.1;" xml:space="preserve">
<style type="text/css">
	.st0{fill:#002856;}
	.st1{fill:#C1C5C8;}
</style>
<g>
	<rect class="st0" width="141.7" height="90.1"/>
	<g>
		<g>
			<path class="st1" d="M23.6,50.8V39.3H34c1.2,0,2.3,0.1,3.4,0.2c1.1,0.2,2,0.6,2.8,1.2c0.9,0.7,1.3,1.7,1.3,3v2.6
				c0,0.6-0.2,1.3-0.5,1.9c-0.3,0.7-1,1.3-2,1.8c-1,0.5-2.5,0.8-4.4,0.8H23.6z M34,48.9c1.3,0,2.2-0.1,2.9-0.4
				c0.6-0.2,1-0.5,1.2-0.9c0.2-0.4,0.3-0.9,0.3-1.6l0-2.8c0-0.2-0.1-0.5-0.3-0.9c-0.2-0.3-0.5-0.6-1.1-0.9c-0.6-0.3-1.5-0.4-2.6-0.4
				h-7.7v7.8H34z"/>
			<polygon class="st1" points="45.8,50.8 45.8,39.3 59.9,39.3 59.9,41.1 49,41.1 49,44 59.4,44 59.4,45.8 49,45.8 49,48.9 
				59.9,48.9 59.9,50.8 			"/>
			<polygon class="st1" points="64.9,50.8 64.9,39.3 68,39.3 68,48.9 78.5,48.9 78.5,50.8 			"/>
			<path class="st1" d="M97.4,50.8l-1.6-2.3h-10l-1.6,2.3h-3.4l8.1-11.5h3.7l8.3,11.5H97.4z M94.5,46.7l-3.8-5.4l-3.8,5.4H94.5z"/>
			<polygon class="st1" points="104.5,50.8 104.5,39.3 107.6,39.3 107.6,48.9 118.2,48.9 118.2,50.8 			"/>
		</g>
		<path id="_x38__1_" class="st1" d="M116.5,39.3c-0.9,0-1.6,0.7-1.6,1.6c0,0.9,0.7,1.6,1.6,1.6c0.9,0,1.6-0.7,1.6-1.6
			C118.2,40,117.4,39.3,116.5,39.3z M116.5,42.3c-0.7,0-1.4-0.6-1.4-1.4c0-0.8,0.6-1.4,1.4-1.4c0.8,0,1.4,0.6,1.4,1.4
			C117.9,41.7,117.3,42.3,116.5,42.3z M117,41.1c0-0.1-0.1-0.1-0.2-0.1c0.1,0,0.3-0.1,0.3-0.2c0.1-0.1,0.1-0.2,0.1-0.3
			c0-0.1,0-0.2-0.1-0.3c0-0.1-0.1-0.1-0.2-0.2c-0.1,0-0.2,0-0.4,0h-0.7v1.7h0.3V41h0.1c0.1,0,0.1,0,0.2,0c0,0,0.1,0,0.1,0.1
			c0,0,0.1,0.1,0.2,0.2l0.2,0.4h0.4l-0.2-0.3C117.1,41.2,117,41.2,117,41.1z M116.5,40.7h-0.3v-0.4h0.3c0.1,0,0.2,0,0.2,0
			c0.1,0,0.1,0,0.1,0.1c0,0,0,0.1,0,0.1c0,0.1,0,0.1,0,0.1c0,0-0.1,0.1-0.1,0.1C116.7,40.7,116.6,40.7,116.5,40.7z"/>
	</g>
</g>
<g>
	<rect class="st0" width="141.7" height="90.1"/>
	<g>
		<g>
			<path class="st1" d="M23.6,50.8V39.3H34c1.2,0,2.3,0.1,3.4,0.2c1.1,0.2,2,0.6,2.8,1.2c0.9,0.7,1.3,1.7,1.3,3v2.6
				c0,0.6-0.2,1.3-0.5,1.9c-0.3,0.7-1,1.3-2,1.8c-1,0.5-2.5,0.8-4.4,0.8H23.6z M34,48.9c1.3,0,2.2-0.1,2.9-0.4
				c0.6-0.2,1-0.5,1.2-0.9c0.2-0.4,0.3-0.9,0.3-1.6l0-2.8c0-0.2-0.1-0.5-0.3-0.9c-0.2-0.3-0.5-0.6-1.1-0.9c-0.6-0.3-1.5-0.4-2.6-0.4
				h-7.7v7.8H34z"/>
			<polygon class="st1" points="45.8,50.8 45.8,39.3 59.9,39.3 59.9,41.1 49,41.1 49,44 59.4,44 59.4,45.8 49,45.8 49,48.9 
				59.9,48.9 59.9,50.8 			"/>
			<polygon class="st1" points="64.9,50.8 64.9,39.3 68,39.3 68,48.9 78.5,48.9 78.5,50.8 			"/>
			<path class="st1" d="M97.4,50.8l-1.6-2.3h-10l-1.6,2.3h-3.4l8.1-11.5h3.7l8.3,11.5H97.4z M94.5,46.7l-3.8-5.4l-3.8,5.4H94.5z"/>
			<polygon class="st1" points="104.5,50.8 104.5,39.3 107.6,39.3 107.6,48.9 118.2,48.9 118.2,50.8 			"/>
		</g>
		<path id="_x38__12_" class="st1" d="M116.5,39.3c-0.9,0-1.6,0.7-1.6,1.6c0,0.9,0.7,1.6,1.6,1.6c0.9,0,1.6-0.7,1.6-1.6
			C118.2,40,117.4,39.3,116.5,39.3z M116.5,42.3c-0.7,0-1.4-0.6-1.4-1.4c0-0.8,0.6-1.4,1.4-1.4c0.8,0,1.4,0.6,1.4,1.4
			C117.9,41.7,117.3,42.3,116.5,42.3z M117,41.1c0-0.1-0.1-0.1-0.2-0.1c0.1,0,0.3-0.1,0.3-0.2c0.1-0.1,0.1-0.2,0.1-0.3
			c0-0.1,0-0.2-0.1-0.3c0-0.1-0.1-0.1-0.2-0.2c-0.1,0-0.2,0-0.4,0h-0.7v1.7h0.3V41h0.1c0.1,0,0.1,0,0.2,0c0,0,0.1,0,0.1,0.1
			c0,0,0.1,0.1,0.2,0.2l0.2,0.4h0.4l-0.2-0.3C117.1,41.2,117,41.2,117,41.1z M116.5,40.7h-0.3v-0.4h0.3c0.1,0,0.2,0,0.2,0
			c0.1,0,0.1,0,0.1,0.1c0,0,0,0.1,0,0.1c0,0.1,0,0.1,0,0.1c0,0-0.1,0.1-0.1,0.1C116.7,40.7,116.6,40.7,116.5,40.7z"/>
	</g>
</g>
</svg>
